<?xml version="1.0" encoding="utf-8"?>
<!-- Generator: Adobe Illustrator 16.0.0, SVG Export Plug-In . SVG Version: 6.00 Build 0)  -->
<!DOCTYPE svg PUBLIC "-//W3C//DTD SVG 1.1//EN" "http://www.w3.org/Graphics/SVG/1.1/DTD/svg11.dtd">
<svg version="1.1" id="Layer_1" xmlns="http://www.w3.org/2000/svg" xmlns:xlink="http://www.w3.org/1999/xlink" x="0px" y="0px"
	 width="24px" height="24px" viewBox="0 0 24 24" enable-background="new 0 0 24 24" xml:space="preserve">
<g>
	<path d="M6.8,20.5l9,0c0.3,0,0.5-0.2,0.5-0.5c0-0.3-0.2-0.5-0.5-0.5l-9,0c-0.3,0-0.5,0.2-0.5,0.5C6.3,20.3,6.5,20.5,6.8,20.5z"/>
	<path d="M18.9,0.9c0-0.3-0.3-0.4-0.6-0.4c-0.3,0-0.4,0.3-0.4,0.6l1.5,8.7c0,0.2,0.2,0.4,0.5,0.4c0,0,0.1,0,0.1,0
		c0.3,0,0.4-0.3,0.4-0.6L18.9,0.9z"/>
	<path d="M6.9,17.3l9,0.8c0,0,0,0,0,0c0.2,0,0.5-0.2,0.5-0.4c0-0.3-0.2-0.5-0.4-0.5l-9-0.8c-0.3,0-0.5,0.2-0.5,0.4
		C6.4,17,6.6,17.3,6.9,17.3z"/>
	<path d="M7.3,13.3l8.7,2.3c0,0,0.1,0,0.1,0c0.2,0,0.4-0.1,0.5-0.4c0.1-0.3-0.1-0.5-0.3-0.6l-8.7-2.3C7.3,12.3,7,12.4,7,12.7
		C6.9,12.9,7.1,13.2,7.3,13.3z"/>
	<path d="M8.8,8.7l7.7,4.5c0.1,0,0.2,0.1,0.2,0.1c0.2,0,0.3-0.1,0.4-0.2c0.1-0.2,0.1-0.5-0.2-0.7L9.3,7.8C9,7.7,8.7,7.8,8.6,8
		C8.5,8.2,8.6,8.5,8.8,8.7z"/>
	<path d="M17.7,11.1c0.1,0.1,0.2,0.2,0.4,0.2c0.1,0,0.2,0,0.3-0.1c0.2-0.2,0.3-0.5,0.1-0.7l-5.1-7.3c-0.2-0.2-0.5-0.3-0.7-0.1
		c-0.2,0.2-0.3,0.5-0.1,0.7L17.7,11.1z"/>
	<path d="M18.9,13.3c-0.3,0-0.5,0.2-0.5,0.5v8.7H4.5v-8.7c0-0.3-0.2-0.5-0.5-0.5c-0.3,0-0.5,0.2-0.5,0.5V23c0,0.1,0,0.1,0.1,0.2
		c0,0.1,0.1,0.2,0.2,0.2c0.1,0,0.2,0.1,0.3,0.1v0c0.1,0,0.3,0,0.4,0h14.4c0.1,0,0.1,0,0.1,0c0.1,0,0.2-0.1,0.3-0.2
		c0-0.1,0.1-0.2,0.1-0.3h0c0-0.1,0-0.3,0-0.4v-8.7C19.4,13.6,19.1,13.3,18.9,13.3z"/>
</g>
</svg>
